<mxfile host="65bd71144e">
    <diagram id="Tr3QYgPfv3LOChohxtou" name="Page-1">
        <mxGraphModel dx="1219" dy="2007" grid="1" gridSize="10" guides="1" tooltips="1" connect="1" arrows="1" fold="1" page="1" pageScale="1" pageWidth="850" pageHeight="1100" math="0" shadow="0">
            <root>
                <mxCell id="0"/>
                <mxCell id="1" parent="0"/>
                <mxCell id="3" value="A" style="swimlane;whiteSpace=wrap;html=1;" parent="1" vertex="1">
                    <mxGeometry x="10" y="80" width="330" height="480" as="geometry"/>
                </mxCell>
                <mxCell id="20" style="edgeStyle=none;html=1;" parent="3" source="8" target="19" edge="1">
                    <mxGeometry relative="1" as="geometry"/>
                </mxCell>
                <mxCell id="8" value="Peer B&lt;br&gt;358148" style="rounded=1;whiteSpace=wrap;html=1;" parent="3" vertex="1">
                    <mxGeometry x="110" y="60" width="120" height="60" as="geometry"/>
                </mxCell>
                <mxCell id="12" value="peer B&lt;br&gt;24602" style="ellipse;whiteSpace=wrap;html=1;aspect=fixed;" parent="3" vertex="1">
                    <mxGeometry x="125" y="150" width="80" height="80" as="geometry"/>
                </mxCell>
                <mxCell id="18" value="responses&lt;br&gt;subscriptions" style="ellipse;whiteSpace=wrap;html=1;" parent="3" vertex="1">
                    <mxGeometry x="190" y="240" width="120" height="80" as="geometry"/>
                </mxCell>
                <mxCell id="16" style="edgeStyle=none;html=1;" parent="3" source="12" target="18" edge="1">
                    <mxGeometry relative="1" as="geometry">
                        <mxPoint x="224.375" y="240" as="targetPoint"/>
                    </mxGeometry>
                </mxCell>
                <mxCell id="19" value="Requests" style="shape=trapezoid;perimeter=trapezoidPerimeter;whiteSpace=wrap;html=1;fixedSize=1;" parent="3" vertex="1">
                    <mxGeometry y="130" width="120" height="60" as="geometry"/>
                </mxCell>
                <mxCell id="4" value="B" style="swimlane;whiteSpace=wrap;html=1;" parent="1" vertex="1">
                    <mxGeometry x="550" y="80" width="390" height="480" as="geometry"/>
                </mxCell>
                <mxCell id="28" value="Subscription data" style="edgeStyle=none;html=1;exitX=0.5;exitY=1;exitDx=0;exitDy=0;entryX=0.5;entryY=0;entryDx=0;entryDy=0;" edge="1" parent="4" source="5" target="30">
                    <mxGeometry y="-5" relative="1" as="geometry">
                        <mxPoint x="195" y="180" as="targetPoint"/>
                        <Array as="points"/>
                        <mxPoint as="offset"/>
                    </mxGeometry>
                </mxCell>
                <mxCell id="5" value="peer A&lt;br&gt;24602" style="ellipse;whiteSpace=wrap;html=1;aspect=fixed;" parent="4" vertex="1">
                    <mxGeometry x="155" y="30" width="80" height="80" as="geometry"/>
                </mxCell>
                <mxCell id="30" value="Server" style="swimlane;whiteSpace=wrap;html=1;" vertex="1" parent="4">
                    <mxGeometry x="95" y="200" width="200" height="200" as="geometry"/>
                </mxCell>
                <mxCell id="29" value="Peer C&lt;br&gt;54386" style="rounded=1;whiteSpace=wrap;html=1;" vertex="1" parent="30">
                    <mxGeometry x="40" y="120" width="120" height="60" as="geometry"/>
                </mxCell>
                <mxCell id="13" value="Peer A&lt;br&gt;54385" style="rounded=1;whiteSpace=wrap;html=1;" parent="30" vertex="1">
                    <mxGeometry x="30" y="40" width="120" height="60" as="geometry"/>
                </mxCell>
                <mxCell id="6" style="edgeStyle=none;html=1;" parent="1" source="5" target="8" edge="1">
                    <mxGeometry relative="1" as="geometry">
                        <mxPoint x="240" y="160" as="targetPoint"/>
                    </mxGeometry>
                </mxCell>
                <mxCell id="9" value="client creates this object" style="ellipse;whiteSpace=wrap;html=1;aspect=fixed;" parent="1" vertex="1">
                    <mxGeometry x="1205" y="-10" width="80" height="80" as="geometry"/>
                </mxCell>
                <mxCell id="10" value="server creates this object" style="rounded=1;whiteSpace=wrap;html=1;" parent="1" vertex="1">
                    <mxGeometry x="1020" width="120" height="60" as="geometry"/>
                </mxCell>
                <mxCell id="11" style="edgeStyle=none;html=1;entryX=0;entryY=1;entryDx=0;entryDy=0;" parent="1" source="8" target="5" edge="1">
                    <mxGeometry relative="1" as="geometry">
                        <mxPoint x="620" y="230" as="targetPoint"/>
                    </mxGeometry>
                </mxCell>
                <mxCell id="14" style="edgeStyle=none;html=1;" parent="1" source="12" target="13" edge="1">
                    <mxGeometry relative="1" as="geometry"/>
                </mxCell>
                <mxCell id="15" style="edgeStyle=none;html=1;entryX=1;entryY=1;entryDx=0;entryDy=0;" parent="1" source="13" target="12" edge="1">
                    <mxGeometry relative="1" as="geometry"/>
                </mxCell>
                <mxCell id="21" style="edgeStyle=none;html=1;exitX=1;exitY=0.75;exitDx=0;exitDy=0;entryX=0.5;entryY=1;entryDx=0;entryDy=0;" parent="1" source="8" target="5" edge="1">
                    <mxGeometry relative="1" as="geometry"/>
                </mxCell>
                <mxCell id="22" value="C" style="swimlane;whiteSpace=wrap;html=1;" vertex="1" parent="1">
                    <mxGeometry x="1050" y="80" width="390" height="480" as="geometry"/>
                </mxCell>
                <mxCell id="23" value="peer B&lt;br&gt;24602" style="ellipse;whiteSpace=wrap;html=1;aspect=fixed;" vertex="1" parent="22">
                    <mxGeometry x="155" y="30" width="80" height="80" as="geometry"/>
                </mxCell>
                <mxCell id="25" style="edgeStyle=none;html=1;" edge="1" parent="1" source="23" target="29">
                    <mxGeometry relative="1" as="geometry"/>
                </mxCell>
                <mxCell id="26" style="edgeStyle=none;html=1;entryX=0;entryY=1;entryDx=0;entryDy=0;" edge="1" parent="1" source="29" target="23">
                    <mxGeometry relative="1" as="geometry"/>
                </mxCell>
                <mxCell id="27" style="edgeStyle=none;html=1;entryX=0.5;entryY=1;entryDx=0;entryDy=0;exitX=1;exitY=1;exitDx=0;exitDy=0;" edge="1" parent="1" source="29" target="23">
                    <mxGeometry relative="1" as="geometry"/>
                </mxCell>
            </root>
        </mxGraphModel>
    </diagram>
</mxfile>